<?xml version="1.0"?>
<svg xmlns="http://www.w3.org/2000/svg" xmlns:xlink="http://www.w3.org/1999/xlink" xmlns:svgjs="http://svgjs.com/svgjs" version="1.1" width="512" height="512" x="0" y="0" viewBox="0 0 512 512" style="enable-background:new 0 0 512 512" xml:space="preserve" class=""><g><g xmlns="http://www.w3.org/2000/svg"><path d="m431.362 80.638a248 248 0 1 0 -350.724 350.724 248 248 0 1 0 350.724-350.724zm-11.313 339.411a232 232 0 0 1 -328.1-328.1 232 232 0 0 1 328.1 328.1z" fill="#fe0000" data-original="#000000" style="" class=""/><path d="m463.965 252.173a8 8 0 1 0 -16 .293 192 192 0 0 1 -188.434 195.5 8 8 0 0 0 .144 16h.149a208 208 0 0 0 204.141-211.793z" fill="#fe0000" data-original="#000000" style="" class=""/><path d="m257.713 431.991h.082a176 176 0 0 0 174.2-174.2 8 8 0 0 0 -7.919-8.08h-.082a8 8 0 0 0 -8 7.919 160 160 0 0 1 -158.361 158.362 8 8 0 0 0 .08 16z" fill="#fe0000" data-original="#000000" style="" class=""/><path d="m288 256a32 32 0 1 0 -32 32 32.036 32.036 0 0 0 32-32zm-48 0a16 16 0 1 1 16 16 16.019 16.019 0 0 1 -16-16z" fill="#fe0000" data-original="#000000" style="" class=""/><path d="m352 256a96 96 0 1 0 -96 96 96.108 96.108 0 0 0 96-96zm-176 0a80 80 0 1 1 80 80 80.091 80.091 0 0 1 -80-80z" fill="#fe0000" data-original="#000000" style="" class=""/><path d="m255.751 400h.249a144 144 0 0 0 144-143.751 8 8 0 0 0 -7.986-8.014h-.014a8 8 0 0 0 -8 7.986 128 128 0 0 1 -128 127.779h-.239a8 8 0 0 0 -.014 16z" fill="#fe0000" data-original="#000000" style="" class=""/><path d="m120.235 120.235a191.06 191.06 0 0 1 132.231-56.2 8 8 0 1 0 -.293-16 208 208 0 0 0 -204.138 211.792 8 8 0 0 0 8 7.854h.149a8 8 0 0 0 7.852-8.145 190.432 190.432 0 0 1 56.199-139.301z" fill="#fe0000" data-original="#000000" style="" class=""/><path d="m254.367 96.008a8 8 0 0 0 -.162-16 176 176 0 0 0 -174.2 174.2 8 8 0 0 0 7.919 8.08h.082a8 8 0 0 0 8-7.919 160 160 0 0 1 158.361-158.361z" fill="#fe0000" data-original="#000000" style="" class=""/><path d="m256 128h.239a8 8 0 0 0 .014-16h-.253a144 144 0 0 0 -144 143.751 8 8 0 0 0 7.986 8.014h.014a8 8 0 0 0 8-7.986 128 128 0 0 1 128-127.779z" fill="#fe0000" data-original="#000000" style="" class=""/></g></g></svg>
